<svg xmlns="http://www.w3.org/2000/svg" width="128" height="128" viewBox="0 0 128 128">
  <rect width="128" height="128" rx="28.16" fill="#378add"/>
  <rect x="12.8" y="12.8" width="102.4" height="102.4" rx="15.36" fill="white"/>
  <rect x="12.8" y="12.8" width="102.4" height="28.672000000000004" rx="15.36" fill="#378add"/>
  <rect x="12.8" y="26.11200000000001" width="102.4" height="30.72" fill="#378add"/>
  <line x1="43.519999999999996" y1="7.680000000000001" x2="43.519999999999996" y2="27.136000000000003" stroke="white" stroke-width="5.12" stroke-linecap="round"/>
  <line x1="84.47999999999999" y1="7.680000000000001" x2="84.47999999999999" y2="27.136000000000003" stroke="white" stroke-width="5.12" stroke-linecap="round"/>
  <text x="64.0" y="33.44384" font-family="system-ui,sans-serif" font-size="14.336000000000002" font-weight="600" fill="white" text-anchor="middle">31</text>
  <rect x="20.992" y="49.66400000000001" width="22.528000000000002" height="14.336000000000002" rx="7.68" fill="#378add" opacity="0.25"/>
  <rect x="52.736000000000004" y="49.66400000000001" width="22.528000000000002" height="14.336000000000002" rx="7.68" fill="#378add" opacity="0.7"/>
  <rect x="84.47999999999999" y="49.66400000000001" width="22.528000000000002" height="14.336000000000002" rx="7.68" fill="#378add" opacity="0.25"/>
  <rect x="20.992" y="70.144" width="22.528000000000002" height="14.336000000000002" rx="7.68" fill="#1d9e75" opacity="0.7"/>
  <rect x="52.736000000000004" y="70.144" width="22.528000000000002" height="14.336000000000002" rx="7.68" fill="#378add" opacity="0.25"/>
  <rect x="84.47999999999999" y="70.144" width="22.528000000000002" height="14.336000000000002" rx="7.68" fill="#d85a30" opacity="0.7"/>
  <rect x="20.992" y="90.62400000000001" width="22.528000000000002" height="14.336000000000002" rx="7.68" fill="#378add" opacity="0.25"/>
  <rect x="52.736000000000004" y="90.62400000000001" width="56.32000000000001" height="14.336000000000002" rx="7.68" fill="#378add" opacity="0.25"/>
</svg>