<svg xmlns="http://www.w3.org/2000/svg" width="152" height="152" viewBox="0 0 152 152">
  <rect width="152" height="152" rx="33.44" fill="#378add"/>
  <rect x="15.200000000000001" y="15.200000000000001" width="121.6" height="121.6" rx="18.24" fill="white"/>
  <rect x="15.200000000000001" y="15.200000000000001" width="121.6" height="34.048" rx="18.24" fill="#378add"/>
  <rect x="15.200000000000001" y="31.008000000000006" width="121.6" height="36.48" fill="#378add"/>
  <line x1="51.68" y1="9.120000000000001" x2="51.68" y2="32.224000000000004" stroke="white" stroke-width="6.08" stroke-linecap="round"/>
  <line x1="100.32" y1="9.120000000000001" x2="100.32" y2="32.224000000000004" stroke="white" stroke-width="6.08" stroke-linecap="round"/>
  <text x="76.0" y="39.71456" font-family="system-ui,sans-serif" font-size="17.024" font-weight="600" fill="white" text-anchor="middle">31</text>
  <rect x="24.928" y="58.976000000000006" width="26.752" height="17.024" rx="9.12" fill="#378add" opacity="0.25"/>
  <rect x="62.624" y="58.976000000000006" width="26.752" height="17.024" rx="9.12" fill="#378add" opacity="0.7"/>
  <rect x="100.32" y="58.976000000000006" width="26.752" height="17.024" rx="9.12" fill="#378add" opacity="0.25"/>
  <rect x="24.928" y="83.296" width="26.752" height="17.024" rx="9.12" fill="#1d9e75" opacity="0.7"/>
  <rect x="62.624" y="83.296" width="26.752" height="17.024" rx="9.12" fill="#378add" opacity="0.25"/>
  <rect x="100.32" y="83.296" width="26.752" height="17.024" rx="9.12" fill="#d85a30" opacity="0.7"/>
  <rect x="24.928" y="107.616" width="26.752" height="17.024" rx="9.12" fill="#378add" opacity="0.25"/>
  <rect x="62.624" y="107.616" width="66.88" height="17.024" rx="9.12" fill="#378add" opacity="0.25"/>
</svg>