<svg xmlns="http://www.w3.org/2000/svg" width="96" height="96" viewBox="0 0 96 96">
  <rect width="96" height="96" rx="21.12" fill="#378add"/>
  <rect x="9.600000000000001" y="9.600000000000001" width="76.8" height="76.8" rx="11.52" fill="white"/>
  <rect x="9.600000000000001" y="9.600000000000001" width="76.8" height="21.504" rx="11.52" fill="#378add"/>
  <rect x="9.600000000000001" y="19.584000000000003" width="76.8" height="23.04" fill="#378add"/>
  <line x1="32.64" y1="5.760000000000002" x2="32.64" y2="20.352000000000004" stroke="white" stroke-width="3.84" stroke-linecap="round"/>
  <line x1="63.36" y1="5.760000000000002" x2="63.36" y2="20.352000000000004" stroke="white" stroke-width="3.84" stroke-linecap="round"/>
  <text x="48.0" y="25.082880000000003" font-family="system-ui,sans-serif" font-size="10.752" font-weight="600" fill="white" text-anchor="middle">31</text>
  <rect x="15.744000000000002" y="37.248000000000005" width="16.896" height="10.752" rx="5.76" fill="#378add" opacity="0.25"/>
  <rect x="39.552" y="37.248000000000005" width="16.896" height="10.752" rx="5.76" fill="#378add" opacity="0.7"/>
  <rect x="63.36" y="37.248000000000005" width="16.896" height="10.752" rx="5.76" fill="#378add" opacity="0.25"/>
  <rect x="15.744000000000002" y="52.608000000000004" width="16.896" height="10.752" rx="5.76" fill="#1d9e75" opacity="0.7"/>
  <rect x="39.552" y="52.608000000000004" width="16.896" height="10.752" rx="5.76" fill="#378add" opacity="0.25"/>
  <rect x="63.36" y="52.608000000000004" width="16.896" height="10.752" rx="5.76" fill="#d85a30" opacity="0.7"/>
  <rect x="15.744000000000002" y="67.968" width="16.896" height="10.752" rx="5.76" fill="#378add" opacity="0.25"/>
  <rect x="39.552" y="67.968" width="42.24" height="10.752" rx="5.76" fill="#378add" opacity="0.25"/>
</svg>